PathFileType  4	(X/Y/Z) C:\Users\antoi\Documents\MyRepositories\mobilecap\ResultsAnalysis
DataRate	CameraRate	NumFrames	NumMarkers	Units	OrigDataRate	OrigDataStartFrame	OrigNumFrames
100.0	100.0	4	51	mm	100.0	1621	2161
Frame#	Time	r_knee			r_shank_antsup			r_ankle			r_calc			r_5meta			r_toe			L_knee			L_shank_antsup			L_ankle			L_calc			L_5meta			L_toe			r_sh2			r_sh3			r_sh4			L_sh2			L_sh3			r_thigh1			r_thigh2			r_thigh3			r_thigh4			r_thigh5			L_thigh1			L_thigh2			L_thigh3			L_thigh4			r.ASIS			r.PSIS			L.ASIS			L.PSIS			C7			R_Shoulder			L_Shoulder			R_Sternum			L_Sternum			R_humerus			R_elbow_med			R_elbow_lat			R_forearm			R_wrist_radius			R_wrist_ulna			L_humerus			L_elbow_med			L_elbow_lat			L_forearm			L_wrist_radius			L_wrist_ulna			R_HJC			L_HJC			R_HJC_reg			L_HJC_reg			
		X1	Y1	Z1	X2	Y2	Z2	X3	Y3	Z3	X4	Y4	Z4	X5	Y5	Z5	X6	Y6	Z6	X7	Y7	Z7	X8	Y8	Z8	X9	Y9	Z9	X10	Y10	Z10	X11	Y11	Z11	X12	Y12	Z12	X13	Y13	Z13	X14	Y14	Z14	X15	Y15	Z15	X16	Y16	Z16	X17	Y17	Z17	X18	Y18	Z18	X19	Y19	Z19	X20	Y20	Z20	X21	Y21	Z21	X22	Y22	Z22	X23	Y23	Z23	X24	Y24	Z24	X25	Y25	Z25	X26	Y26	Z26	X27	Y27	Z27	X28	Y28	Z28	X29	Y29	Z29	X30	Y30	Z30	X31	Y31	Z31	X32	Y32	Z32	X33	Y33	Z33	X34	Y34	Z34	X35	Y35	Z35	X36	Y36	Z36	X37	Y37	Z37	X38	Y38	Z38	X39	Y39	Z39	X40	Y40	Z40	X41	Y41	Z41	X42	Y42	Z42	X43	Y43	Z43	X44	Y44	Z44	X45	Y45	Z45	X46	Y46	Z46	X47	Y47	Z47	X48	Y48	Z48	X49	Y49	Z49	X50	Y50	Z50	X51	Y51	Z51	

1621	16.20000000	-200.20611	478.86276	-412.70900	-138.87005	439.53910	-415.09388	-264.81520	95.37131	-434.73647	-320.14037	54.47272	-483.85388	-143.63447	48.52907	-392.35679	-101.34892	79.69373	-439.63961	-187.70098	473.10841	-797.43138	-146.41618	401.11768	-805.28890	-249.90983	97.81198	-771.52878	-306.73542	56.09669	-718.79052	-134.73744	46.44338	-810.84535	-87.72356	67.25943	-760.82832	-155.00991	327.37461	-428.54750	-210.32048	444.00844	-386.06686	-224.81293	328.85494	-381.20975	-251.22564	300.42514	-810.10961	-232.61345	422.60264	-813.85429	-469.24423	575.70876	-515.53017	-362.41809	583.29473	-491.70286	-352.00707	568.14829	-426.53718	-488.23733	527.15781	-419.10646	-375.24373	525.01803	-398.50545	-492.60370	549.26177	-795.38025	-352.18701	529.89323	-814.57165	-508.45625	437.07871	-809.28999	-371.98553	416.83993	-792.19752	-560.78054	603.26094	-495.44088	-734.61493	534.68202	-583.43841	-537.20833	591.14340	-727.90094	-729.97343	534.92764	-680.35851	-685.36093	1032.54083	-631.01163	-608.32010	1004.14427	-452.57699	-590.01670	995.74423	-779.08793	-571.02484	939.79371	-599.88612	-566.31684	937.63512	-633.98992	-619.64470	777.82428	-353.58479	-671.95933	665.76090	-376.20861	-630.65283	689.58435	-321.70396	-517.98002	741.12612	-385.77365	-464.37749	796.10464	-450.47627	-437.58742	762.02950	-439.23346	-563.35506	778.03478	-879.09276	-581.51784	652.56365	-837.89349	-552.19989	669.88048	-900.56755	-443.17100	747.08942	-835.08705	-397.42521	818.59011	-776.34133	-372.83317	782.75391	-766.22770	-581.70827	494.18404	-528.28033	-578.67428	489.03260	-718.85798	-576.56090	500.93128	-528.62882	-569.17561	501.32172	-682.87055	
1622	16.21000000	-200.05257	478.92680	-413.46632	-138.84651	439.67798	-415.66033	-265.11318	95.27237	-435.27837	-320.27891	54.60683	-484.09035	-143.68294	48.79566	-392.48686	-101.42376	79.94290	-439.71180	-188.26192	473.20699	-797.71094	-146.78399	401.19522	-805.46436	-250.19349	97.84973	-771.49464	-306.84039	56.01054	-718.85311	-134.83189	46.72075	-810.82145	-87.90545	67.76394	-760.78268	-154.80794	327.04080	-428.98884	-210.18036	444.30030	-386.55144	-224.25608	328.50611	-382.25619	-251.74654	300.55622	-810.28036	-232.95028	422.66698	-814.19055	-469.23437	575.78448	-515.78532	-362.35439	583.26034	-492.15457	-351.64031	567.98052	-427.40571	-488.43543	527.55541	-418.97461	-375.02824	524.98088	-398.91772	-492.99252	549.13766	-795.08002	-352.63164	529.90193	-814.96875	-508.86119	436.92217	-809.32889	-372.36932	416.76956	-792.58836	-563.63145	603.18606	-496.86795	-735.47400	532.72998	-583.48949	-539.09680	591.58380	-728.54470	-731.14702	532.77557	-680.47172	-693.81656	1030.85973	-631.32143	-618.29751	1001.75386	-454.50920	-599.39318	995.34907	-779.38570	-578.39580	939.44243	-599.89675	-573.33224	937.19239	-634.48318	-627.03729	776.05106	-353.98593	-678.72900	663.95637	-377.25246	-637.62852	687.77745	-322.25090	-524.41697	738.97366	-385.94891	-470.31992	793.97551	-450.11612	-443.82687	759.68393	-438.86373	-570.82454	776.79713	-878.85015	-588.28163	651.50240	-837.17848	-559.11231	668.48401	-900.08551	-450.15351	745.54354	-834.23127	-404.27705	818.23666	-776.76534	-379.34969	782.80800	-766.96243	-582.35780	494.15661	-528.80978	-579.42674	488.82521	-719.38431	-577.35365	501.24668	-529.55411	-570.49068	501.31864	-683.35363	
1623	16.22000000	-200.00270	479.02563	-414.25764	-138.83430	439.82309	-416.38293	-265.22398	95.47849	-435.31226	-320.48295	54.88342	-484.51810	-143.56028	50.10271	-391.49289	-101.59011	80.31844	-439.83954	-188.80700	473.32306	-798.18281	-147.30255	401.34778	-805.75889	-250.50177	97.94110	-771.60532	-306.94844	55.90762	-718.90451	-134.94721	47.09444	-810.78270	-88.08867	68.29537	-760.75071	-154.82673	326.84084	-429.35122	-210.30832	444.40406	-386.99849	-224.11234	328.68148	-382.94327	-252.30759	300.66887	-810.45865	-233.45570	422.74222	-814.49556	-469.32197	575.99131	-515.91464	-362.41431	583.28787	-492.60334	-351.46272	568.01541	-427.87762	-488.56498	527.72878	-419.01943	-374.93735	524.93081	-399.36849	-493.31182	548.98449	-794.47580	-353.13254	529.93354	-815.30328	-509.31381	436.80158	-809.36377	-372.78548	416.79562	-793.13878	-566.34030	603.56428	-497.45010	-736.32344	530.97719	-583.33233	-541.57747	591.91374	-728.91482	-731.77505	531.09587	-680.37250	-702.37088	1029.44513	-631.37823	-630.30941	997.37117	-459.59049	-607.70816	994.63511	-779.74601	-585.86806	939.08348	-600.31590	-580.67530	936.87570	-634.95380	-634.18465	774.34301	-354.50670	-685.47297	662.40318	-378.58332	-644.40856	686.05861	-322.96286	-530.64394	736.88035	-386.19410	-476.06682	791.97683	-449.87854	-449.90942	757.32999	-438.66708	-578.14714	775.65538	-878.61191	-594.99095	650.58836	-836.64457	-565.46737	668.21914	-899.28029	-457.38909	744.01463	-834.25050	-410.95920	817.70211	-777.11458	-385.90523	782.35599	-767.30095	-583.01488	494.45184	-528.90169	-580.15140	488.81287	-719.46804	-578.55564	501.38764	-530.14326	-571.34525	501.57671	-683.80289	
1624	16.23000000	-200.11914	479.13757	-414.91567	-138.88437	439.98967	-417.15469	-265.16328	95.83332	-435.06353	-320.63857	55.00151	-484.76234	-143.34792	51.95279	-389.92515	-101.79699	80.78377	-440.04925	-189.39812	473.45717	-798.69183	-147.89983	401.53381	-806.11099	-250.84559	98.06410	-771.76317	-307.11972	55.77942	-718.97196	-135.12779	47.55480	-810.67416	-88.33643	68.88140	-760.72969	-155.03099	326.82033	-429.77641	-210.47729	444.63261	-387.38414	-224.37652	329.18247	-383.14402	-252.74857	300.79644	-810.73772	-234.03574	422.86430	-814.88921	-469.55561	576.27741	-516.07125	-362.61487	583.42103	-492.95257	-351.57613	568.11437	-428.19186	-488.64674	527.55385	-419.37408	-375.00440	524.90388	-399.78762	-493.76755	548.83147	-794.14926	-353.77344	530.08471	-815.58145	-509.81669	436.74382	-809.53249	-373.24933	416.91039	-793.70667	-567.55695	604.69171	-496.33213	-737.21226	529.51514	-583.10989	-544.65046	592.46169	-728.76774	-732.08812	529.83567	-680.01829	-710.96414	1028.22972	-631.26287	-640.48155	994.36782	-462.40616	-615.82495	994.12450	-780.14108	-593.29193	938.92311	-600.93720	-588.07330	936.66637	-635.45976	-641.14424	772.77938	-355.11864	-692.00393	660.85779	-379.81103	-651.02892	684.51521	-323.68678	-536.72461	734.84691	-386.51202	-481.66585	790.07643	-449.80078	-455.84279	755.10649	-438.73946	-585.32058	774.60790	-878.34589	-601.38773	649.70282	-836.02583	-571.70798	668.59366	-898.73621	-464.18973	743.15551	-834.38145	-417.61342	816.91094	-777.27227	-392.47733	781.66333	-767.61328	-583.28170	495.10060	-528.49540	-580.73847	489.29111	-719.06050	-579.71864	501.62246	-529.51539	-571.55877	502.13488	-683.66500	
